<svg width="24" height="24" viewBox="0 0 24 24" fill="none" xmlns="http://www.w3.org/2000/svg">
<g clip-path="url(#clip0_903_1109)">
<g clip-path="url(#clip1_903_1109)">
<path d="M22.5254 9.52877H21.5756C20.8008 9.52877 20.151 8.86019 20.151 8.06665C20.151 7.66675 20.3197 7.30435 20.6196 7.03567L21.232 6.43582C21.8381 5.83598 21.8381 4.85499 21.232 4.25514L19.8386 2.87425C19.5637 2.59932 19.1575 2.43687 18.7451 2.43687C18.3327 2.43687 17.9328 2.59932 17.6516 2.87425L17.0643 3.4616C16.7831 3.77402 16.4082 3.94272 16.0021 3.94272C15.2023 3.94272 14.5337 3.29289 14.5337 2.52434V1.56834C14.5337 0.724811 13.8526 0 13.0029 0H11.1034C10.2536 0 9.57875 0.718563 9.57875 1.56834V2.51809C9.57875 3.28664 8.91018 3.93647 8.11039 3.93647C7.71049 3.93647 7.34184 3.76777 7.07316 3.4741L6.46706 2.87425C6.19214 2.59307 5.78599 2.43687 5.3736 2.43687C4.96121 2.43687 4.56131 2.59932 4.28013 2.87425L2.87425 4.24889C2.27441 4.84874 2.27441 5.82973 2.87425 6.42333L3.4616 7.01067C3.77402 7.29185 3.94897 7.66675 3.94897 8.06665C3.94897 8.86644 3.29914 9.52877 2.52434 9.52877H1.57459C0.718563 9.52877 0 10.1973 0 11.0471V11.9969V12.9466C0 13.7902 0.718563 14.465 1.57459 14.465H2.52434C3.29914 14.465 3.94897 15.1336 3.94897 15.9271C3.94897 16.327 3.77402 16.7019 3.4616 16.9831L2.87425 17.5642C2.27441 18.164 2.27441 19.145 2.87425 19.7386L4.26764 21.1257C4.54257 21.4069 4.94871 21.5631 5.3611 21.5631C5.7735 21.5631 6.17339 21.4007 6.45457 21.1257L7.06066 20.5259C7.32309 20.2322 7.69799 20.0635 8.09789 20.0635C8.89768 20.0635 9.56626 20.7134 9.56626 21.4819V22.4317C9.56626 23.2752 10.2411 24 11.0971 24H12.9966C13.8464 24 14.5212 23.2814 14.5212 22.4317V21.4819C14.5212 20.7134 15.1898 20.0635 15.9896 20.0635C16.3895 20.0635 16.7644 20.2385 17.0518 20.5446L17.6392 21.132C17.9203 21.4069 18.3202 21.5694 18.7326 21.5694C19.145 21.5694 19.5449 21.4069 19.8261 21.132L21.2195 19.7449C21.8193 19.145 21.8193 18.164 21.2195 17.5642L20.6071 16.9643C20.3072 16.6957 20.1385 16.327 20.1385 15.9334C20.1385 15.1336 20.7883 14.4712 21.5631 14.4712H22.5129C23.3627 14.4712 23.9688 13.8027 23.9688 12.9529V11.9969V11.0471C23.9813 10.1973 23.3752 9.52877 22.5254 9.52877ZM17.0456 11.9969C17.0456 14.7524 14.8149 16.9956 12.0469 16.9956C9.27883 16.9956 7.04816 14.7524 7.04816 11.9969C7.04816 9.24134 9.27883 6.99818 12.0469 6.99818C14.8149 6.99818 17.0456 9.24134 17.0456 11.9969Z" fill="#1A614A"/>
</g>
</g>
<defs>
<clipPath id="clip0_903_1109">
<rect width="24" height="24" fill="white"/>
</clipPath>
<clipPath id="clip1_903_1109">
<rect width="24" height="24" fill="white"/>
</clipPath>
</defs>
</svg>
