    <svg xmlns="http://www.w3.org/2000/svg" viewBox="0 0 59.637 59.637">
      <path
        fill="#1a614a"
        d="m30.547 48.91-8.4-4.455-.05.05c1.377 1.237 2.286 2.073 2.722 2.51l3.812 3.811-1.553 1.553-8.193-8.194 2.365-2.365 8.204 4.327.034-.034-4.209-8.322 2.364-2.364 8.194 8.193-1.62 1.62-3.877-3.879a44.936 44.936 0 0 1-.626-.641c-.233-.245-.843-.906-1.83-1.982l-.05.05 4.304 8.53-1.591 1.592zm12.368-12.368-2.544-1.357-2.987 2.988 1.356 2.544-1.872 1.872-5.336-11.12 2.124-2.123 11.13 5.324-1.871 1.872zm-4.416-2.399a932.086 932.086 0 0 1-3.926-2.07c-.3-.163-.533-.297-.697-.4.354.6 1.183 2.136 2.488 4.605l2.135-2.135zm13.943-7.129L50.458 29l-5.005-1.195 1.194 5.005-1.86 1.86-1.508-6.943-6.512-1.423 1.916-1.916 4.714 1.182-1.217-4.68 1.873-1.872 1.49 6.636 6.9 1.361z"
      ></path>
      <g fill="none" stroke="#1a614a">
        <circle strokeWidth="4.614" cx="29.819" cy="29.819" r="27.5"></circle>
        <path
          strokeWidth="4.637"
          strokeLinecap="round"
          d="m16.138 37.75 17.9-17.9H23.626"
        ></path>
      </g>
    </svg>