<svg width="24" height="24" viewBox="0 0 24 24" fill="none" xmlns="http://www.w3.org/2000/svg">
<g clip-path="url(#clip0_903_1115)">
<g clip-path="url(#clip1_903_1115)">
<path d="M21.8491 3.64192C21.8491 3.18789 21.6691 2.75247 21.3485 2.43143C21.028 2.11039 20.5933 1.93003 20.14 1.93003H16.7218V0.21814H15.0128V1.93003H8.17639V0.21814H6.4673V1.93003H3.04912C2.59584 1.93003 2.16112 2.11039 1.84061 2.43143C1.52009 2.75247 1.34003 3.18789 1.34003 3.64192V20.7608C1.34003 21.2148 1.52009 21.6502 1.84061 21.9713C2.16112 22.2923 2.59584 22.4727 3.04912 22.4727H6.4673V20.7608H3.04912V3.64192H6.4673V5.3538H8.17639V3.64192H15.0128V5.3538H16.7218V3.64192H20.14V8.77758H21.8491V3.64192Z" fill="#1A614A"/>
<path d="M15.7401 11.1273L17.9646 15.4368L22.7219 16.1272L19.231 19.4819L20.1037 24.2182L15.7401 21.9823L11.3764 24.2182L12.2491 19.4819L8.75824 16.1272L13.6455 15.4368L15.7401 11.1273Z" fill="#1A614A"/>
</g>
</g>
<defs>
<clipPath id="clip0_903_1115">
<rect width="24" height="24" fill="white"/>
</clipPath>
<clipPath id="clip1_903_1115">
<rect width="24" height="24" fill="white"/>
</clipPath>
</defs>
</svg>
