<svg width="59" height="56" viewBox="0 0 59 56" fill="none" xmlns="http://www.w3.org/2000/svg">
<path d="M55.904 47.781C54.1254 51.4567 50.3614 54 45.9955 54C39.9228 54 35 49.0752 35 43C35 36.9248 39.9228 32 45.9955 32C50.2805 32 53.9906 34.4444 55.8052 38.0212M57 42.8922V43.1168" stroke="#1A614A" stroke-miterlimit="10" stroke-linecap="round" stroke-linejoin="round"/>
<path d="M15 54C21.0751 54 26 49.0751 26 43C26 36.9249 21.0751 32 15 32C8.92487 32 4 36.9249 4 43C4 49.0751 8.92487 54 15 54Z" stroke="#1A614A" stroke-miterlimit="10" stroke-linecap="round" stroke-linejoin="round"/>
<path d="M14.6412 54H4M45.8735 54H32.537M28.1877 53.9084H28.144M43.8783 26.5687H45.3397C46.8099 26.5687 48 25.3231 48 23.7843C48 22.2456 46.8099 21 45.3397 21H41.8218V25.3139L42.0318 27.9059L45.8823 42.6794M18.6667 24.4804L14.6412 42.7893H25.3612L42.0056 27.3564M18.1241 27.0724H41.8218" stroke="#1A614A" stroke-miterlimit="10" stroke-linecap="round" stroke-linejoin="round"/>
<path d="M18.2136 27H15.8843C14.3863 27 12.5685 25.881 12.5685 24.0715V23.6956L19.0083 23.713M11.5089 14.9973H2M13.4819 4H23" stroke="#1A614A" stroke-miterlimit="10" stroke-linecap="round" stroke-linejoin="round"/>
<path d="M42 6.13625L32.0012 8C32.0012 8 31.7595 2.98087 38.1777 2.03599C41.4629 1.55055 42 6.13625 42 6.13625Z" stroke="#1A614A" stroke-miterlimit="10" stroke-linecap="round"/>
<path d="M41.3674 7C41.6516 7.42955 41.8476 7.92592 41.9456 8.46047C42.1198 9.47929 41.8719 10.5238 41.2565 11.3649C40.641 12.2059 39.7082 12.7749 38.6627 12.9469C38.0159 13.0519 37.3524 13.0006 36.7307 12.7975C36.109 12.5943 35.548 12.2456 35.097 11.7818C34.6461 11.318 34.3189 10.7535 34.1444 10.1377C33.9699 9.52199 33.9533 8.87392 34.0961 8.25047" stroke="#1A614A" stroke-miterlimit="10" stroke-linecap="round"/>
<path d="M25 23.2772C24.4133 23.6124 23.7609 23.8371 23.0802 23.9384C22.3996 24.0398 21.704 24.0158 21.0334 23.8678C20.3627 23.7199 19.7302 23.4508 19.1721 23.0762C18.6139 22.7015 18.1411 22.2285 17.7807 21.6843C17.4187 21.1411 17.176 20.5371 17.0665 19.9068C16.957 19.2766 16.9829 18.6326 17.1427 18.0116C17.3025 17.3907 17.5931 16.805 17.9978 16.2883C18.4025 15.7715 18.9133 15.3337 19.501 15L25 23.2772Z" stroke="#1A614A" stroke-miterlimit="10" stroke-linecap="round" stroke-linejoin="round"/>
<path d="M24.0329 24L19 16.3821L27.7917 11.3402C28.9475 10.6792 30.4674 11.0097 31.1773 12.0859L33.6346 15.7974C34.3445 16.8736 33.9896 18.2887 32.8337 18.9496L24.0329 24Z" stroke="#1A614A" stroke-miterlimit="10" stroke-linecap="round" stroke-linejoin="round"/>
<path d="M42 21.1738C42 21.1738 33.6802 22.4141 31.8655 15M33.4196 42H29.8646L27.7242 28.7731L20 23.1639" stroke="#1A614A" stroke-miterlimit="10" stroke-linecap="round" stroke-linejoin="round"/>
</svg>
