<svg width="24" height="24" viewBox="0 0 24 24" fill="none" xmlns="http://www.w3.org/2000/svg">
<g clip-path="url(#clip0_903_1121)">
<g clip-path="url(#clip1_903_1121)">
<path d="M9.78604 23.8027C12.034 22.8691 11.5415 20.2951 10.4049 18.668C9.28088 17.0009 7.72751 15.8539 6.16152 14.747C5.04417 14.0033 4.04653 13.0758 3.20633 11.9996C2.85271 11.5595 2.13286 10.7459 2.86534 10.5859C3.61045 10.4258 4.89861 11.1994 5.55532 11.4928C6.70456 11.9996 7.84117 12.5864 8.90201 13.2799L10.1775 11.0127C8.20742 9.63897 5.68161 8.42532 3.33262 8.06523C1.99394 7.85184 0.579491 8.14525 0.124846 9.67898C-0.279283 10.9993 0.364797 12.333 1.09728 13.3733C2.82746 15.8139 5.51744 16.9875 7.52545 19.0948C7.95484 19.5349 8.47263 20.055 8.72521 20.6685C8.99041 21.2553 8.92727 21.2953 8.33371 21.2953C6.76771 21.2953 4.81021 20.0017 3.53468 19.1481L2.25915 21.4154C4.19139 22.669 7.42442 24.6295 9.78604 23.8027ZM23.7916 2.99724C24.0695 2.70383 24.0695 2.22371 23.7916 1.94364L22.1498 0.209851C22.0176 0.0752225 21.841 0 21.6573 0C21.4736 0 21.2971 0.0752225 21.1648 0.209851L19.8766 1.5702L22.5035 4.34426M11.3647 10.5592V13.3333H13.9915L21.7583 5.13113L19.1315 2.35708L11.3647 10.5592Z" fill="#1A614A"/>
</g>
</g>
<defs>
<clipPath id="clip0_903_1121">
<rect width="24" height="24" fill="white"/>
</clipPath>
<clipPath id="clip1_903_1121">
<rect width="24" height="24" fill="white"/>
</clipPath>
</defs>
</svg>
